<?xml version="1.0" encoding="utf-8"?>
<!-- Generator: Adobe Illustrator 15.0.0, SVG Export Plug-In . SVG Version: 6.00 Build 0)  -->
<!DOCTYPE svg PUBLIC "-//W3C//DTD SVG 1.1//EN" "http://www.w3.org/Graphics/SVG/1.1/DTD/svg11.dtd">
<svg version="1.1" id="Calque_1" xmlns="http://www.w3.org/2000/svg" xmlns:xlink="http://www.w3.org/1999/xlink" x="0px" y="0px"
	 width="128px" height="128px" viewBox="0 0 128 128" enable-background="new 0 0 128 128" xml:space="preserve">
<circle fill="none" stroke="#000000" stroke-miterlimit="10" cx="64" cy="64" r="60"/>
<path fill="#FFFFFF" stroke="#000000" stroke-miterlimit="10" d="M108,79.958c0,10.605-6.717,19.205-15.808,19.04h-60
	C24.715,99.163,18,90.563,18,79.958v-33.61c0-10.606,6.715-19.205,15-19.205h60c8.283,0,15,8.599,15,19.205V79.958z"/>
<path fill="none" stroke="#000000" stroke-miterlimit="10" d="M63,108"/>
<path fill="none" stroke="#000000" stroke-miterlimit="10" d="M63,90"/>
<path fill="none" stroke="#000000" stroke-miterlimit="10" d="M54,117"/>
<path fill="none" stroke="#000000" stroke-miterlimit="10" d="M63,108"/>
<path fill="none" stroke="#000000" stroke-miterlimit="10" d="M72,117"/>
<path fill="none" stroke="#000000" stroke-miterlimit="10" d="M63,108"/>
<line fill="none" stroke="#000000" stroke-miterlimit="10" x1="36" y1="36" x2="54" y2="36"/>
<line fill="none" stroke="#000000" stroke-miterlimit="10" x1="27" y1="45" x2="99" y2="45"/>
<line fill="none" stroke="#000000" stroke-miterlimit="10" x1="27" y1="54" x2="99" y2="54"/>
<line fill="none" stroke="#000000" stroke-miterlimit="10" x1="27" y1="63" x2="99" y2="63"/>
<line fill="none" stroke="#000000" stroke-miterlimit="10" x1="27" y1="81" x2="99" y2="81"/>
<line fill="none" stroke="#000000" stroke-miterlimit="10" x1="72" y1="90" x2="90" y2="90"/>
<line fill="none" stroke="#000000" stroke-miterlimit="10" x1="27" y1="72" x2="99" y2="72"/>
</svg>
